<svg width="141" height="142" viewBox="0 0 141 142" fill="none" xmlns="http://www.w3.org/2000/svg">
<circle cx="70.5" cy="71" r="70" fill="#FFA400" stroke="#111111"/>
<path d="M47 107.664H79.4057C82.4891 107.681 85.542 107.054 88.3684 105.821C91.0828 104.698 93.5516 103.055 95.6362 100.985C99.9478 96.6589 102.38 90.8075 102.407 84.6996C102.407 84.2574 102.407 83.7785 102.351 83.3087C100.33 85.2235 97.9845 86.7642 95.4244 87.8591C94.3956 88.2712 93.34 88.6128 92.2649 88.8816C91.3906 91.602 89.6733 93.9735 87.3614 95.6527C85.0495 97.332 82.2631 98.2318 79.4057 98.2219H56.3772V43.3404H73.6026C74.8277 43.3404 78.0701 43.3404 80.5019 45.809C81.4477 46.6534 82.2109 47.6821 82.7447 48.8321C83.2786 49.9821 83.5717 51.2291 83.6061 52.4965V52.9018C83.5476 54.5313 83.0684 56.118 82.2152 57.5075C81.5948 58.4879 80.8239 59.3645 79.9308 60.1051C78.653 61.118 77.0753 61.6784 75.4448 61.6987H73.3907V71.1404H79.4057C81.5082 71.1469 83.5791 71.652 85.4484 72.6142H86.3696C87.178 72.6166 87.9789 72.4595 88.7264 72.1518C89.474 71.8442 90.1535 71.392 90.7259 70.8212C91.2984 70.2504 91.7526 69.5723 92.0626 68.8257C92.3725 68.0791 92.532 67.2786 92.532 66.4702C92.546 66.2555 92.546 66.0401 92.532 65.8254C91.8474 65.3477 91.137 64.9079 90.4042 64.5082L89.2896 63.9094L90.1278 62.9883C90.8955 61.7483 91.5139 60.4218 91.9701 59.0366C92.7006 57.0359 93.0686 54.9211 93.057 52.7913C93.0339 51.2091 92.8079 49.6365 92.3846 48.1119C92.1543 47.1907 91.574 45.4958 91.574 45.4958C90.6234 43.2641 89.2502 41.2373 87.5302 39.5268C85.7912 37.7761 83.7232 36.3866 81.4452 35.438C79.1672 34.4895 76.7242 34.0008 74.2566 34H47V107.664Z" fill="#111111"/>
<path d="M61.5619 48.5356V49.9174L62.9436 48.5356H61.5619Z" fill="#111111"/>
<path d="M64.5741 48.5356L61.5619 51.5478V53.169L66.1953 48.5356H64.5741Z" fill="#111111"/>
<path d="M67.8257 48.5356L61.5619 54.7994V56.4298L69.4469 48.5356H67.8257Z" fill="#111111"/>
<path d="M71.0773 48.5356L61.5619 58.051V59.6814L72.7077 48.5356H71.0773Z" fill="#111111"/>
<path d="M68.2494 55.1859H69.3087L75.6922 48.8024C75.2522 48.6407 74.7884 48.5536 74.3197 48.5444L61.5619 61.3022V62.9327L68.2494 56.2452V55.1859Z" fill="#111111"/>
<path d="M72.5513 55.1859L77.5715 50.1657C77.3335 49.8647 77.058 49.5954 76.7517 49.3643L70.9301 55.1859H72.5513Z" fill="#111111"/>
<path d="M68.2494 57.876L61.5619 64.5542V66.1847L68.2494 59.4972V57.876Z" fill="#111111"/>
<path d="M75.8124 55.1861L78.4653 52.5332C78.4377 52.0912 78.3413 51.6561 78.1798 51.2437L74.182 55.2322L75.8124 55.1861Z" fill="#111111"/>
<path d="M68.2494 61.1274L61.5619 67.8057V69.4361L68.2494 62.7487V61.1274Z" fill="#111111"/>
<path d="M78.4108 55.6563C78.902 54.9449 79.2177 54.1274 79.332 53.2705C79.2137 54.1263 78.8984 54.943 78.4108 55.6563Z" fill="#111111"/>
<path d="M68.2494 64.3794L61.5619 71.0577V72.6881L68.2494 66.0006V64.3794Z" fill="#111111"/>
<path d="M77.6274 55.1865C77.7195 55.0575 77.7656 54.9101 77.8485 54.772L77.434 55.1865H77.6274Z" fill="#111111"/>
<path d="M68.2494 67.6304L61.5619 74.3179V75.9391L68.2494 69.2516V67.6304Z" fill="#111111"/>
<path d="M68.2494 70.8823L61.5619 77.5698V79.191L68.2494 72.5035V70.8823Z" fill="#111111"/>
<path d="M68.2494 74.1343L61.5619 80.8218V82.443L68.2494 75.7647V74.1343Z" fill="#111111"/>
<path d="M68.2494 77.7629V77.3853L61.5619 84.0727V85.6939L69.4929 77.7629H68.2494Z" fill="#111111"/>
<path d="M97.5975 51.2437L98.1686 51.6582L97.6067 51.2437H97.5975Z" fill="#111111"/>
<path d="M71.1234 77.7632L61.5619 87.3246V88.955L72.7446 77.7632H71.1234Z" fill="#111111"/>
<path d="M74.375 77.7632L61.5619 90.5763V92.1975L68.2494 85.5192V84.4599H69.2995L75.9962 77.7632H74.375Z" fill="#111111"/>
<path d="M98.7571 53.3804L98.1492 54.0067C98.1492 54.6055 98.0663 55.195 97.9926 55.7753L99.5585 54.2094C99.4111 54.0528 99.2822 53.887 99.1256 53.7396C98.969 53.5922 98.8769 53.5001 98.7571 53.3804Z" fill="#111111"/>
<path d="M77.6267 77.7632L70.9301 84.4599H72.5513L79.248 77.7632H77.6267Z" fill="#111111"/>
<path d="M63.9216 93.1005L68.2509 88.7711V87.1499L62.2911 93.1005H63.9216Z" fill="#111111"/>
<path d="M97.0711 59.9485L101.032 55.9875C100.802 55.6744 100.581 55.352 100.332 55.0664L97.6606 57.6917C97.504 58.4746 97.3014 59.2115 97.0711 59.9485Z" fill="#111111"/>
<path d="M101.688 55.324C101.458 55.0108 101.236 54.6976 100.988 54.4028C101.236 54.6976 101.458 55.02 101.688 55.324Z" fill="#111111"/>
<path d="M80.8787 77.7632L74.182 84.4599H75.8032L82.5091 77.7632H80.8787Z" fill="#111111"/>
<path d="M102.285 57.9863C102.095 57.6363 101.892 57.2955 101.677 56.9639L96.6756 61.9657C96.8523 62.3492 97.0061 62.7429 97.1362 63.1447L102.285 57.9863Z" fill="#111111"/>
<path d="M102.968 57.3048C102.774 56.9547 102.562 56.6231 102.35 56.2915C102.562 56.6231 102.774 56.9547 102.968 57.3048Z" fill="#111111"/>
<path d="M96.3356 63.679C96.2242 63.3438 96.0951 63.0148 95.9487 62.6934C96.0996 63.0108 96.2319 63.3369 96.3448 63.6698C96.3448 63.7435 96.3448 63.8079 96.3448 63.8816C96.3632 63.8172 96.354 63.7527 96.3356 63.679Z" fill="#111111"/>
<path d="M67.1735 93.1003L68.2512 92.0226V90.4014L65.5431 93.1003H67.1735Z" fill="#111111"/>
<path d="M97.6334 65.8898L103.271 60.2432C103.179 59.9852 103.105 59.7181 103.004 59.4602L102.81 59.0825L97.4492 64.4436C97.5406 64.9213 97.6021 65.4043 97.6334 65.8898Z" fill="#111111"/>
<path d="M103.854 59.1009C103.743 58.8522 103.623 58.6311 103.504 58.3916C103.587 58.6127 103.743 58.8522 103.854 59.1009Z" fill="#111111"/>
<path d="M84.6833 77.7635H84.1307L77.434 84.4602H79.0552L85.7795 77.7451C85.2544 77.7635 84.8584 77.7635 84.6833 77.7635Z" fill="#111111"/>
<path d="M96.6674 65.2358C96.7252 65.6448 96.7559 66.0571 96.7595 66.4702C96.7559 66.0571 96.7252 65.6448 96.6674 65.2358Z" fill="#111111"/>
<path d="M86.7451 76.7686C86.0082 76.7686 85.4186 76.833 85.0594 76.8422C85.4186 76.833 86.0082 76.8146 86.7451 76.7686Z" fill="#111111"/>
<path d="M88.2572 77.5884L87.5019 77.6436L80.6855 84.4601H82.3159L89.5284 77.2476C89.1139 77.3673 88.6994 77.5055 88.2572 77.5884Z" fill="#111111"/>
<path d="M97.137 69.6111L103.972 62.7763C103.88 62.3341 103.769 61.8551 103.649 61.4683L97.5331 67.5846C97.4679 68.2715 97.3352 68.9503 97.137 69.6111Z" fill="#111111"/>
<path d="M92.5961 75.8011L83.9374 84.4599H85.5678L104.341 65.687C104.341 65.1804 104.285 64.683 104.221 64.1855L95.857 72.5403C95.0049 73.8391 93.895 74.949 92.5961 75.8011Z" fill="#111111"/>
<path d="M89.0778 84.2024L104.166 69.1141C104.249 68.5154 104.313 67.9166 104.341 67.3179L87.2448 84.405C87.8159 84.405 88.4238 84.3037 89.0778 84.2024Z" fill="#111111"/>
<path d="M91.3879 83.6769L92.088 83.4835C92.5511 83.3833 93.0066 83.2509 93.4513 83.0874H93.5342L102.957 73.572V73.526C103.265 72.7516 103.52 71.9577 103.722 71.1494L91.1669 83.7322L91.3879 83.6769Z" fill="#111111"/>
<path d="M104.507 72.0522C104.713 71.356 104.879 70.6487 105.004 69.9336C104.879 70.6487 104.713 71.356 104.507 72.0522Z" fill="#111111"/>
<path d="M101.651 77.6069C101.121 78.3787 100.536 79.1114 99.901 79.7993C100.536 79.1114 101.121 78.3787 101.651 77.6069Z" fill="#111111"/>
<path d="M99.1353 79.2188C99.5522 78.7882 99.9428 78.3329 100.305 77.8555L97.5417 80.6189C98.1007 80.1848 98.6329 79.7173 99.1353 79.2188Z" fill="#111111"/>
<path d="M99.7788 79.873C98.7551 80.8958 97.6177 81.7983 96.389 82.5628C97.6177 81.7983 98.7551 80.8958 99.7788 79.873Z" fill="#111111"/>
<path d="M103.078 75.2578C102.661 76.0749 102.184 76.8601 101.651 77.6067C102.182 76.8588 102.659 76.0738 103.078 75.2578L103.309 74.8433L103.078 75.2578Z" fill="#111111"/>
<path d="M84.1304 77.7634L85.0515 76.8423H83.4303L82.5092 77.7634H84.1304Z" fill="#111111"/>
<path d="M85.779 77.7449L87.5015 77.6436L88.5977 76.5566C88.4503 76.5566 88.3213 76.6395 88.174 76.6672C87.6581 76.6672 87.1791 76.7501 86.7462 76.7685L85.779 77.7449Z" fill="#111111"/>
<path d="M96.6763 61.9655C96.6118 61.8274 96.575 61.6616 96.5105 61.5234C96.6211 61.2655 96.7224 61.0076 96.8145 60.7496C96.9158 60.4825 96.9803 60.2154 97.0724 59.9482L95.5065 61.505C95.6999 61.8642 95.8104 62.2695 95.967 62.6472L96.6763 61.9655Z" fill="#111111"/>
<path d="M97.6075 67.2898C97.6507 67.0185 97.6753 66.7446 97.6812 66.47C97.6812 66.2765 97.6812 66.0739 97.6351 65.8896L96.714 66.8108C96.714 66.9213 96.714 67.0595 96.6587 67.2529C96.6239 67.7468 96.5469 68.2368 96.4284 68.7176L97.5338 67.6122C97.5706 67.4832 97.5983 67.3911 97.6075 67.2898Z" fill="#111111"/>
<path d="M92.5956 75.8009L95.8565 72.5401C96.423 71.6309 96.8543 70.6441 97.1369 69.6108L95.4788 71.2689C94.5047 73.1315 92.9844 74.6518 91.1218 75.6259L89.5006 77.2471C90.5974 76.9187 91.6401 76.4315 92.5956 75.8009Z" fill="#111111"/>
<path d="M72.5524 55.1865L71.6405 56.1077H73.2617L74.1829 55.1865H72.5524Z" fill="#111111"/>
<path d="M77.6279 77.7634L78.5491 76.8423H76.9186L75.9975 77.7634H77.6279Z" fill="#111111"/>
<path d="M80.879 77.7634L81.8001 76.8423H80.1789L79.2485 77.7634H80.879Z" fill="#111111"/>
<path d="M60.6404 47.6147V49.2175L62.2432 47.6147H60.6404Z" fill="#111111"/>
<path d="M97.1369 63.145L96.4 63.8911C96.5223 64.3333 96.6176 64.7824 96.6856 65.236L97.4685 64.4438C97.4041 64.1122 97.3488 63.7898 97.2475 63.4306C97.2014 63.3385 97.1369 63.2187 97.1369 63.145Z" fill="#111111"/>
<path d="M102.811 59.083L103.502 58.3921C103.327 58.0237 103.161 57.6552 102.968 57.3052L102.286 57.9868C102.47 58.3369 102.664 58.7053 102.811 59.083Z" fill="#111111"/>
<path d="M97.5981 51.2436L97.202 50.958C97.202 51.1791 97.202 51.4002 97.202 51.6212L97.5981 51.2436Z" fill="#111111"/>
<path d="M89.0773 84.202L87.9996 85.3258C88.4694 85.2798 88.9207 85.2061 89.4734 85.1232L89.9156 85.0403L91.1683 83.7783C90.6617 83.9165 89.7406 84.1468 89.326 84.2113L89.0773 84.202Z" fill="#111111"/>
<path d="M102.663 74.1894L102.313 74.8066C101.893 75.5798 101.422 76.3244 100.903 77.0357L100.305 77.8279L103.308 74.825L103.409 74.6407C103.567 74.3815 103.712 74.114 103.842 73.8394C104.081 73.2406 104.293 72.6419 104.478 71.9971L102.958 73.517C102.876 73.7479 102.777 73.9726 102.663 74.1894Z" fill="#111111"/>
<path d="M96.9067 56.8533C97.0242 56.2441 97.1103 55.6292 97.1646 55.0111C97.2198 54.4492 97.2383 53.8781 97.2567 53.2977C97.2567 53.1319 97.2567 52.9661 97.2567 52.8003C97.2567 52.4411 97.2567 52.0634 97.2567 51.695C97.2567 51.4739 97.2567 51.2528 97.2567 51.0317C97.2567 51.6305 97.3304 52.22 97.3304 52.8003C97.3258 55.4135 96.858 58.0052 95.9487 60.455C96.1237 59.976 96.2619 59.5339 96.4 58.9996C96.605 58.2932 96.7741 57.5769 96.9067 56.8533Z" fill="#111111"/>
<path d="M96.9067 56.8538C96.7738 57.5742 96.6047 58.2874 96.4 58.9908L97.662 57.692C97.8032 57.0779 97.9138 56.4239 97.9936 55.73L96.9067 56.8538Z" fill="#111111"/>
<path d="M98.1513 54.007C98.1513 53.6293 98.1513 53.2609 98.1513 52.8832C98.354 53.049 98.529 53.224 98.7132 53.3898L99.358 52.745C99.0817 52.4871 98.8053 52.2292 98.5013 51.9805L97.2117 53.2701C97.2117 53.8504 97.2117 54.4215 97.1196 54.9834L98.1513 54.007Z" fill="#111111"/>
<path d="M95.9487 60.4551C95.8106 60.8327 95.654 61.2012 95.4882 61.5604C95.6632 61.1551 95.8198 60.8051 95.9487 60.4551Z" fill="#111111"/>
<path d="M74.8906 56.1077H76.5118L77.433 55.1865H75.8026L74.8906 56.1077Z" fill="#111111"/>
<path d="M101.678 56.9643L102.351 56.2919C102.139 55.9603 101.918 55.6471 101.688 55.3247L101.034 55.9879C101.255 56.3011 101.466 56.6327 101.678 56.9643Z" fill="#111111"/>
<path d="M99.7811 79.8737L99.9019 79.7993L99.8276 79.883L99.7811 79.8737Z" fill="#111111"/>
<path d="M78.1792 51.2439L78.8701 50.553C78.6944 50.2004 78.478 49.8696 78.2253 49.5674L77.5713 50.2122C77.8245 50.5237 78.0294 50.8715 78.1792 51.2439Z" fill="#111111"/>
<path d="M67.8263 48.5359L68.7474 47.6147H67.117L66.1959 48.5359H67.8263Z" fill="#111111"/>
<path d="M71.0773 48.5359L71.9985 47.6147H70.3773L69.4469 48.5359H71.0773Z" fill="#111111"/>
<path d="M74.2547 48.5358H74.3192L75.1574 47.6976C74.854 47.6375 74.5456 47.6066 74.2363 47.6055H73.6099L72.6888 48.5266L74.2547 48.5358Z" fill="#111111"/>
<path d="M64.5743 48.5359L65.4955 47.6147H63.865L62.9439 48.5359H64.5743Z" fill="#111111"/>
<path d="M63.92 93.1001L62.9988 94.0212H64.62L65.5412 93.1001H63.92Z" fill="#111111"/>
<path d="M61.5616 49.917L60.6404 50.8381V52.4686L61.5616 51.5474V49.917Z" fill="#111111"/>
<path d="M61.5616 53.1689L60.6404 54.0901V55.7205L61.5616 54.7994V53.1689Z" fill="#111111"/>
<path d="M69.2995 84.4604L68.2494 85.5198V87.1502L69.1705 86.2198V85.3816H70.0088L70.9299 84.4604H69.2995Z" fill="#111111"/>
<path d="M78.4935 52.7633C78.452 53.4765 78.2302 54.1675 77.8487 54.7714L79.3594 53.27C79.3864 53.1021 79.4048 52.9331 79.4146 52.7633C79.4122 52.404 79.3721 52.0458 79.2949 51.6948L78.4659 52.5331C78.4659 52.6068 78.4935 52.6804 78.4935 52.7633Z" fill="#111111"/>
<path d="M68.2497 93.1004H67.1719L66.2508 94.0216H67.872L69.1708 92.7228V91.1016L68.2497 92.0227V93.1004Z" fill="#111111"/>
<path d="M68.2494 90.4012L69.1705 89.4708V87.8496L68.2494 88.7708V90.4012Z" fill="#111111"/>
<path d="M76.7529 49.4015L77.4069 48.7567C77.0985 48.5085 76.7614 48.2982 76.4028 48.1304L75.6935 48.8396C76.0719 48.975 76.4286 49.1642 76.7529 49.4015Z" fill="#111111"/>
<path d="M61.5616 93.1005V92.1978L60.6404 93.1189V94.0216H61.3681L62.2893 93.1005H61.5616Z" fill="#111111"/>
<path d="M61.5616 69.436L60.6404 70.3572V71.9876L61.5616 71.0572V69.436Z" fill="#111111"/>
<path d="M76.512 56.1076H78.078C78.1977 55.9694 78.299 55.8036 78.4096 55.6562C78.299 55.8036 78.1977 55.9694 78.078 56.1076H76.512Z" fill="#111111"/>
<path d="M61.5616 85.6943L60.6404 86.6155V88.2459L61.5616 87.3248V85.6943Z" fill="#111111"/>
<path d="M61.5616 79.1909L60.6404 80.1121V81.7425L61.5616 80.8213V79.1909Z" fill="#111111"/>
<path d="M61.5616 72.688L60.6404 73.6091V75.2395L61.5616 74.3184V72.688Z" fill="#111111"/>
<path d="M61.5616 82.4429L60.6404 83.364V84.9944L61.5616 84.0733V82.4429Z" fill="#111111"/>
<path d="M61.5616 66.1846L60.6404 67.1057V68.7361L61.5616 67.8058V66.1846Z" fill="#111111"/>
<path d="M61.5616 59.6812L60.6404 60.6023V62.2235L61.5616 61.3024V59.6812Z" fill="#111111"/>
<path d="M61.5616 56.4297L60.6404 57.3508V58.972L61.5616 58.0509V56.4297Z" fill="#111111"/>
<path d="M61.5616 88.9551L60.6404 89.8762V91.4974L61.5616 90.5763V88.9551Z" fill="#111111"/>
<path d="M61.5616 62.9326L60.6404 63.8538V65.475L61.5616 64.5538V62.9326Z" fill="#111111"/>
<path d="M104.22 64.1857L105.031 63.3751C104.957 62.9145 104.865 62.4631 104.754 62.021L103.999 62.7763C104.091 63.2185 104.156 63.7159 104.22 64.1857Z" fill="#111111"/>
<path d="M68.2494 70.8826L69.1705 69.9615V68.3311L68.2494 69.2522V70.8826Z" fill="#111111"/>
<path d="M86.3948 84.4601H85.5658L84.6447 85.3812H86.2659L87.2423 84.4048C87.0028 84.4048 86.6712 84.4601 86.3948 84.4601Z" fill="#111111"/>
<path d="M68.2494 77.3856L69.1705 76.4645V74.8433L68.2494 75.7644V77.3856Z" fill="#111111"/>
<path d="M104.378 66.4703C104.378 66.7558 104.378 67.0322 104.378 67.3177L105.299 66.3966C105.299 65.8807 105.299 65.3557 105.216 64.8398L104.295 65.761C104.35 65.9821 104.378 66.2031 104.378 66.4703Z" fill="#111111"/>
<path d="M61.5616 75.9395L60.6404 76.8606V78.491L61.5616 77.5699V75.9395Z" fill="#111111"/>
<path d="M68.2494 67.6307L69.1705 66.7095V65.0791L68.2494 66.0002V67.6307Z" fill="#111111"/>
<path d="M89.4727 85.0774C88.9476 85.1603 88.4686 85.234 87.9988 85.2801C87.467 85.3451 86.9318 85.3789 86.3961 85.3814C87.4281 85.3627 88.4569 85.261 89.4727 85.0774C89.8688 85.0222 90.6057 84.8379 91.1123 84.709L89.9148 84.9945L89.4727 85.0774Z" fill="#111111"/>
<path d="M93.7664 83.935C93.2577 84.1262 92.7378 84.2862 92.2097 84.414C92.7375 84.2849 93.2573 84.125 93.7664 83.935C94.6736 83.5418 95.551 83.0831 96.3916 82.5625C95.8297 82.9033 95.2586 83.2257 94.6599 83.4836L93.7664 83.935Z" fill="#111111"/>
<path d="M70.0088 56.1077L70.9299 55.1865H69.3087L68.2494 56.2458V57.8763L69.1705 56.9551V56.1077H70.0088Z" fill="#111111"/>
<path d="M94.6599 83.4837L97.5523 80.5913C96.3004 81.5859 94.922 82.4098 93.4532 83.0415L92.0531 84.4509H92.1728C92.701 84.3231 93.2209 84.1631 93.7296 83.9719L94.6599 83.4837Z" fill="#111111"/>
<path d="M68.2494 74.1341L69.1705 73.2129V71.5825L68.2494 72.5037V74.1341Z" fill="#111111"/>
<path d="M79.055 84.4604L78.1339 85.3816H79.7643L80.6854 84.4604H79.055Z" fill="#111111"/>
<path d="M99.4032 52.7357C99.5229 52.8555 99.6703 52.9568 99.7808 53.0765C99.8914 53.1963 100.066 53.3989 100.214 53.5463C100.361 53.6937 100.619 53.9793 100.813 54.2003C100.481 53.8134 100.14 53.4358 99.7808 53.0765C99.2791 52.576 98.7402 52.1141 98.1688 51.6948L98.5465 51.9712C98.8505 52.2199 99.1268 52.4778 99.4032 52.7357Z" fill="#111111"/>
<path d="M68.2494 61.1272L69.1705 60.2061V58.5757L68.2494 59.4968V61.1272Z" fill="#111111"/>
<path d="M72.5516 84.4604L71.6304 85.3816H73.2609L74.182 84.4604H72.5516Z" fill="#111111"/>
<path d="M74.375 77.7634L75.2962 76.8423H73.675L72.7446 77.7634H74.375Z" fill="#111111"/>
<path d="M75.8026 84.4604L74.8815 85.3816H76.5119L77.433 84.4604H75.8026Z" fill="#111111"/>
<path d="M99.5595 54.2004C99.8266 54.4859 100.094 54.7623 100.333 55.0571L100.987 54.403C100.932 54.3294 100.868 54.2649 100.812 54.2004C100.619 53.9793 100.416 53.7675 100.214 53.5464L99.5595 54.2004Z" fill="#111111"/>
<path d="M103.75 71.1497L104.975 69.9338C105.067 69.4088 105.159 68.8837 105.205 68.3495C105.205 68.2573 105.205 68.156 105.205 68.0547L104.164 69.114C104.063 69.7995 103.924 70.479 103.75 71.1497Z" fill="#111111"/>
<path d="M103.678 61.468L104.424 60.7311C104.295 60.3258 104.148 59.9205 104.001 59.5244L103.273 60.2429C103.42 60.6482 103.586 61.0627 103.678 61.468Z" fill="#111111"/>
<path d="M68.2494 64.3792L69.1705 63.4581V61.8276L68.2494 62.7488V64.3792Z" fill="#111111"/>
<path d="M71.124 77.7634L72.0452 76.8423H70.4147L69.4936 77.7634H71.124Z" fill="#111111"/>
<path d="M82.3166 84.4604L81.3954 85.3816H83.0167L83.9378 84.4604H82.3166Z" fill="#111111"/>
<path d="M61.5616 48.5359H62.9433L63.8644 47.6147H62.2432L60.6404 49.2175V50.8387L61.5616 49.9176V48.5359Z" fill="#111111"/>
<path d="M66.1966 48.5359L67.1177 47.6147H65.4965L64.5754 48.5359H66.1966Z" fill="#111111"/>
<path d="M61.5616 51.5479L60.6404 52.469V54.0902L61.5616 53.1691V51.5479Z" fill="#111111"/>
<path d="M61.5616 54.7993L60.6404 55.7205V57.3509L61.5616 56.4297V54.7993Z" fill="#111111"/>
<path d="M69.4467 48.5359L70.3771 47.6147H68.7466L67.8255 48.5359H69.4467Z" fill="#111111"/>
<path d="M72.7079 48.5359L73.629 47.6147H71.9986L71.0775 48.5359H72.7079Z" fill="#111111"/>
<path d="M61.5616 58.0508L60.6404 58.9719V60.6023L61.5616 59.6812V58.0508Z" fill="#111111"/>
<path d="M75.6932 48.8027L76.4025 48.0934C76.0056 47.9135 75.5879 47.7836 75.1589 47.7065L74.3207 48.5448C74.7894 48.5539 75.2532 48.6411 75.6932 48.8027Z" fill="#111111"/>
<path d="M61.5616 61.3022L60.6404 62.2234V63.8538L61.5616 62.9327V61.3022Z" fill="#111111"/>
<path d="M68.2494 56.2458L69.3087 55.1865H68.2494V56.2458Z" fill="#111111"/>
<path d="M70.9311 55.1865L70.0099 56.1077H71.6404L72.5523 55.1865H70.9311Z" fill="#111111"/>
<path d="M68.2494 59.4969L69.1705 58.5758V56.9546L68.2494 57.8757V59.4969Z" fill="#111111"/>
<path d="M77.5722 50.1654L78.2262 49.5206C77.9858 49.2218 77.7106 48.9528 77.4064 48.7192L76.7523 49.364C77.0586 49.5952 77.3341 49.8645 77.5722 50.1654Z" fill="#111111"/>
<path d="M61.5616 64.5542L60.6404 65.4753V67.1058L61.5616 66.1846V64.5542Z" fill="#111111"/>
<path d="M74.1812 55.1865L73.2601 56.1077H74.8905L75.8024 55.1865H74.1812Z" fill="#111111"/>
<path d="M68.2494 62.7489L69.1705 61.8278V60.2065L68.2494 61.1277V62.7489Z" fill="#111111"/>
<path d="M78.4648 52.5329L79.2938 51.6946C79.2039 51.282 79.0615 50.8827 78.8701 50.5063L78.1792 51.1972C78.3455 51.6242 78.4419 52.0752 78.4648 52.5329Z" fill="#111111"/>
<path d="M61.5616 67.8057L60.6404 68.736V70.3572L61.5616 69.4361V67.8057Z" fill="#111111"/>
<path d="M77.8477 54.772C77.7648 54.9101 77.7187 55.0575 77.6266 55.1865H77.4332L76.512 56.1076H78.078C78.1977 55.9695 78.299 55.8036 78.4096 55.6563C78.8971 54.943 79.2124 54.1263 79.3307 53.2705L77.8477 54.772Z" fill="#111111"/>
<path d="M68.2494 66.0004L69.1705 65.0792V63.458L68.2494 64.3791V66.0004Z" fill="#111111"/>
<path d="M61.5616 71.0571L60.6404 71.9875V73.6087L61.5616 72.6875V71.0571Z" fill="#111111"/>
<path d="M68.2494 69.2518L69.1705 68.3307V66.7095L68.2494 67.6306V69.2518Z" fill="#111111"/>
<path d="M61.5616 74.3184L60.6404 75.2395V76.8607L61.5616 75.9396V74.3184Z" fill="#111111"/>
<path d="M61.5616 77.5698L60.6404 78.491V80.1122L61.5616 79.191V77.5698Z" fill="#111111"/>
<path d="M68.2494 72.5038L69.1705 71.5826V69.9614L68.2494 70.8826V72.5038Z" fill="#111111"/>
<path d="M61.5616 80.8218L60.6404 81.7429V83.3641L61.5616 82.443V80.8218Z" fill="#111111"/>
<path d="M68.2494 75.7645L69.1705 74.8433V73.2129L68.2494 74.134V75.7645Z" fill="#111111"/>
<path d="M68.2494 77.7632H69.4929L70.4141 76.842H69.1705V76.4644L68.2494 77.3855V77.7632Z" fill="#111111"/>
<path d="M61.5616 84.0732L60.6404 84.9944V86.6156L61.5616 85.6945V84.0732Z" fill="#111111"/>
<path d="M97.2277 51.6582C97.2277 52.0266 97.2277 52.4043 97.2277 52.7635C97.2277 52.9293 97.2277 53.0951 97.2277 53.261L98.5173 51.9714L98.1396 51.695L97.5961 51.2437L97.2277 51.6582Z" fill="#111111"/>
<path d="M61.5616 87.3252L60.6404 88.2463V89.8768L61.5616 88.9556V87.3252Z" fill="#111111"/>
<path d="M72.7454 77.7634L73.6757 76.8423H72.0453L71.1241 77.7634H72.7454Z" fill="#111111"/>
<path d="M98.1491 54.0073L97.1358 54.9745C97.0816 55.5926 96.9955 56.2075 96.8779 56.8168L97.9649 55.7299C98.057 55.1864 98.1123 54.5969 98.1491 54.0073Z" fill="#111111"/>
<path d="M61.5616 90.5762L60.6404 91.4973V93.1185L61.5616 92.1974V90.5762Z" fill="#111111"/>
<path d="M68.2494 85.5198L69.2995 84.4604H68.2494V85.5198Z" fill="#111111"/>
<path d="M75.9964 77.7634L76.9175 76.8423H75.2963L74.3752 77.7634H75.9964Z" fill="#111111"/>
<path d="M99.126 53.7312C99.2826 53.8785 99.4115 54.0443 99.5589 54.2009L100.213 53.5469C100.066 53.3995 99.9366 53.2245 99.78 53.0771C99.6234 52.9298 99.5221 52.8561 99.4023 52.7363L98.7575 53.3811C98.8773 53.5009 98.9786 53.6114 99.126 53.7312Z" fill="#111111"/>
<path d="M97.0724 59.9485C97.3027 59.2116 97.5053 58.4746 97.6619 57.7285L96.4 58.9905C96.2618 59.4787 96.1236 59.9669 95.9486 60.4459C95.7736 60.9249 95.6631 61.1552 95.5065 61.5052L97.0724 59.9485Z" fill="#111111"/>
<path d="M79.2493 77.7634L80.1796 76.8423H78.5492L77.6281 77.7634H79.2493Z" fill="#111111"/>
<path d="M101.688 55.324C101.457 55.02 101.236 54.6976 100.988 54.4028L100.334 55.0568C100.582 55.3516 100.803 55.674 101.034 55.978L101.688 55.324Z" fill="#111111"/>
<path d="M62.2894 93.1001L61.3683 94.0212H62.9987L63.9198 93.1001H62.2894Z" fill="#111111"/>
<path d="M70.9311 84.4604L70.0099 85.3816H71.6312L72.5523 84.4604H70.9311Z" fill="#111111"/>
<path d="M68.2494 88.7708L69.1705 87.8497V86.2192L68.2494 87.1496V88.7708Z" fill="#111111"/>
<path d="M68.2494 92.0223L69.1705 91.1011V89.4707L68.2494 90.4011V92.0223Z" fill="#111111"/>
<path d="M74.1812 84.4604L73.2601 85.3816H74.8813L75.8024 84.4604H74.1812Z" fill="#111111"/>
<path d="M102.285 57.9864L102.967 57.3048C102.773 56.9547 102.561 56.6231 102.35 56.2915L101.677 56.9639C101.886 57.2955 102.089 57.6364 102.285 57.9864Z" fill="#111111"/>
<path d="M65.5423 93.1001L64.6212 94.0212H66.2516L67.1727 93.1001H65.5423Z" fill="#111111"/>
<path d="M82.5095 77.7634L83.4307 76.8423H81.8002L80.8791 77.7634H82.5095Z" fill="#111111"/>
<path d="M96.6764 61.9658L95.9487 62.6935C96.0951 63.0149 96.2242 63.344 96.3356 63.6791C96.3356 63.7528 96.3356 63.8173 96.3356 63.891L97.0725 63.1449C96.9635 62.7445 96.8312 62.3508 96.6764 61.9658Z" fill="#111111"/>
<path d="M69.171 94.0215V92.7227L67.8722 94.0215H69.171Z" fill="#111111"/>
<path d="M102.811 59.0825L103.005 59.4601C103.106 59.718 103.18 59.9852 103.272 60.2431L104 59.5246C103.944 59.3864 103.908 59.2391 103.852 59.1009C103.797 58.9627 103.622 58.6311 103.502 58.3916L102.811 59.0825Z" fill="#111111"/>
<path d="M77.4332 84.4604L76.512 85.3816H78.1332L79.0544 84.4604H77.4332Z" fill="#111111"/>
<path d="M97.4503 64.4438L96.6674 65.236C96.7252 65.645 96.7559 66.0573 96.7595 66.4704C96.7595 66.5625 96.7595 66.6638 96.7595 66.7835L97.6806 65.8624C97.6329 65.3853 97.556 64.9115 97.4503 64.4438Z" fill="#111111"/>
<path d="M85.7783 77.745L86.6994 76.7686C85.9625 76.7686 85.373 76.833 85.0137 76.8422L84.0926 77.7634H84.6453C84.8571 77.7634 85.2532 77.7634 85.7783 77.745Z" fill="#111111"/>
<path d="M88.2569 77.5885C88.699 77.5056 89.1136 77.3674 89.5281 77.2477L91.1493 75.6265C90.3425 76.0434 89.4847 76.3531 88.5977 76.5476L87.5016 77.6346L88.2569 77.5885Z" fill="#111111"/>
<path d="M103.999 62.7764L104.754 62.021C104.653 61.5881 104.552 61.1552 104.423 60.7314L103.677 61.4684C103.796 61.9013 103.907 62.2974 103.999 62.7764Z" fill="#111111"/>
<path d="M97.5595 67.5845L96.4542 68.6898C96.266 69.5875 95.9561 70.4553 95.533 71.269L97.1911 69.611C97.3799 68.9492 97.5033 68.2704 97.5595 67.5845Z" fill="#111111"/>
<path d="M80.6851 84.4604L79.764 85.3816H81.3944L82.3155 84.4604H80.6851Z" fill="#111111"/>
<path d="M83.9371 84.4604L83.0159 85.3816H84.6464L85.5675 84.4604H83.9371Z" fill="#111111"/>
<path d="M95.8568 72.5405L92.596 75.8014C93.8948 74.9493 95.0047 73.8394 95.8568 72.5405Z" fill="#111111"/>
<path d="M104.34 65.6873L105.262 64.7661C105.262 64.2872 105.151 63.845 105.077 63.3384L104.267 64.149C104.285 64.6832 104.322 65.1807 104.34 65.6873Z" fill="#111111"/>
<path d="M104.166 69.1136L105.225 68.0543C105.225 67.5292 105.299 67.0042 105.299 66.4699V66.3594L104.377 67.2805C104.313 67.9161 104.248 68.5148 104.166 69.1136Z" fill="#111111"/>
<path d="M89.0774 84.2021C88.4234 84.3035 87.8154 84.3772 87.2351 84.414L86.2679 85.3812H86.3968C86.9317 85.394 87.4669 85.3755 87.9996 85.3259L89.0774 84.2021Z" fill="#111111"/>
<path d="M93.4532 83.0876C93.0235 83.2491 92.5834 83.3814 92.1359 83.4837L91.4359 83.6771L91.2148 83.7324L89.962 84.9943L91.1595 84.7088L91.6754 84.5706L92.1359 84.4508L93.4532 83.0415V83.0876Z" fill="#111111"/>
<path d="M102.959 73.5721L104.506 72.0522C104.712 71.356 104.878 70.6487 105.004 69.9336L103.779 71.1495C103.577 71.9578 103.321 72.7517 103.014 73.526L102.959 73.5721Z" fill="#111111"/>
<path d="M103.31 74.8525L100.307 77.8555C99.9444 78.3329 99.5537 78.7881 99.1368 79.2187C98.6371 79.7138 98.108 80.1783 97.5524 80.6097L94.6601 83.4836C95.2588 83.1889 95.8299 82.8665 96.3918 82.5625C97.6196 81.8037 98.7568 80.9075 99.7816 79.8912L99.9014 79.7991C100.552 79.1157 101.152 78.3861 101.698 77.616C102.231 76.8693 102.708 76.0842 103.125 75.2671L103.31 74.8525Z" fill="#111111"/>
</svg>
