<svg width="50" height="50" fill="none" xmlns="http://www.w3.org/2000/svg" class=""><circle cx="24.999" cy="25" r="24.5" fill="#fff" stroke="#222"></circle><path d="M21.282 21.575h-3.39V31.76h3.39V21.575zM21.506 18.425c-.022-.998-.736-1.759-1.895-1.759-1.16 0-1.918.76-1.918 1.76 0 .977.736 1.76 1.874 1.76h.021c1.182 0 1.918-.783 1.918-1.76zM33.506 25.92c0-3.128-1.672-4.584-3.902-4.584-1.8 0-2.606.988-3.056 1.682v-1.443h-3.39c.045.956 0 10.184 0 10.184h3.39v-5.687c0-.305.022-.608.112-.826.245-.608.803-1.238 1.74-1.238 1.226 0 1.717.934 1.717 2.303v5.448h3.389v-5.84z" fill="#222"></path></svg>