<svg width="50" height="51" fill="none" xmlns="http://www.w3.org/2000/svg" class=""><circle cx="25" cy="25.017" r="24.5" fill="#fff" stroke="#222"></circle><path fill-rule="evenodd" clip-rule="evenodd" d="M24.093 16.685h.913c2.716 0 3.038.01 4.11.059.992.045 1.53.21 1.89.35.474.184.812.405 1.168.76.356.357.577.696.761 1.17.14.359.306.897.35 1.889.05 1.072.06 1.394.06 4.11 0 2.714-.01 3.036-.06 4.108-.045.992-.21 1.53-.35 1.889a3.146 3.146 0 01-.76 1.168 3.147 3.147 0 01-1.17.761c-.358.14-.897.305-1.889.35-1.072.05-1.394.06-4.11.06s-3.038-.01-4.11-.06c-.992-.045-1.53-.21-1.89-.35a3.152 3.152 0 01-1.17-.76 3.154 3.154 0 01-.76-1.17c-.14-.358-.306-.896-.351-1.888-.049-1.073-.059-1.395-.059-4.111 0-2.717.01-3.037.059-4.11.045-.991.211-1.53.35-1.888.185-.475.405-.814.762-1.17a3.158 3.158 0 011.17-.761c.358-.14.896-.306 1.888-.351.939-.042 1.302-.055 3.198-.057v.002zm6.343 1.689a1.22 1.22 0 100 2.442 1.22 1.22 0 000-2.443zm-10.654 6.65a5.224 5.224 0 1110.449 0 5.224 5.224 0 01-10.449 0z" fill="#222"></path><path d="M25.013 21.599a3.431 3.431 0 110 6.862 3.431 3.431 0 010-6.862z" fill="#222"></path></svg>