<svg version="1.2" xmlns="http://www.w3.org/2000/svg" viewBox="0 0 20 24" width="20" height="24"><style>.a{fill:#111}</style><path class="a" d="m0 23.5v-23.5h8.9c0.9 0 1.7 0.2 2.4 0.5 0.7 0.2 1.4 0.7 2 1.3 0.5 0.5 1 1.2 1.3 1.8l0.3 0.9c0.2 0.5 0.2 1 0.2 1.5 0 0.7-0.1 1.3-0.4 1.9q-0.1 0.2-0.1 0.3-0.1 0.2-0.2 0.4-0.1 0.1-0.1 0.3-0.1 0.1-0.2 0.3l-0.3 0.3 0.4 0.2c0.2 0.1 0.5 0.3 0.7 0.4v0.2c0 1.1-0.9 1.9-2 1.9h-0.3c-0.7-0.2-1.3-0.4-2-0.4h-2v-3h0.7c0.5 0 1.1-0.2 1.5-0.5 0 0 0.3-0.3 0.7-0.8 0.3-0.5 0.5-1 0.5-1.5v-0.1c0-0.9-0.4-1.6-1.1-2.2-0.7-0.7-1.8-0.7-2.2-0.7h-5.6v17.5h7.5q0.4 0 0.8-0.1 0.5-0.1 0.9-0.3 0.4-0.2 0.8-0.4 0.3-0.2 0.6-0.5c0.5-0.5 0.9-1.1 1.1-1.7 0.4-0.1 0.7-0.2 1-0.3q0.4-0.1 0.7-0.3 0.3-0.1 0.5-0.3 0.3-0.2 0.6-0.4 0.3-0.2 0.6-0.4v0.5c0 0.9-0.2 1.9-0.6 2.8q-0.2 0.3-0.4 0.6-0.1 0.3-0.3 0.6-0.2 0.3-0.5 0.6-0.2 0.2-0.5 0.5c-0.6 0.7-1.4 1.2-2.4 1.6q-1.4 0.5-2.8 0.5h-10.7c0 0 0 0 0 0z"/><path class="a" d="m4.5 19.1v-14.8h4.4c1 0 1.8 0.7 1.8 1.7 0 0.4-0.2 0.7-0.5 1h-2.9v6.5h5.1c0.1 0 0.6 0 1.1 0 1.6-0.3 2.7-1.5 2.8-3v-0.3c0-0.3 0-0.6-0.1-0.9-0.1-0.2-0.2-0.4-0.3-0.6 0.1-0.1 0.1-0.2 0.2-0.4 0.3-0.7 0.5-1.6 0.5-2.4v-0.6c0.3 0.2 0.6 0.5 0.9 0.7 0.6 0.5 0.9 1.2 1.3 1.8 0.3 0.8 0.5 1.6 0.5 2.4 0 0.8-0.2 1.6-0.5 2.3 0 0.1-0.1 0.2-0.1 0.3l-0.1 0.2c-0.1 0.3-0.3 0.5-0.5 0.7-0.1 0.2-0.3 0.5-0.5 0.8-0.6 0.5-1.3 0.9-1.9 1.3-0.2 0.1-0.4 0.1-0.5 0.2l-0.6 0.1c0 0-0.5 0.1-0.7 0.2-0.4 0.1-0.6 0.1-0.9 0.1h-5.7v2.7c0 0-2.8 0-2.8 0z"/></svg>